# xmcd
#
# Track frame offsets:
# 150
# 19572
# 37110
# 53847
# 69815
# 89104
# 104458
# 118026
# 134802
# 151863
# 169868
#
# Disc length: 2720 seconds
#
#
# Revision: 0
# Processed by: cddbd v1.4PL0 Copyright (c) Steve Scherf et al.
# Submitted via: FreeRIP 2.51 
#
DISCID=950a9e0b
DTITLE=Matt Thackston - Better Than Here
DYEAR=2003
DGENRE=Country
TTITLE0=it was our town
TTITLE1=the worst part
TTITLE2=long way from over her
TTITLE3=something to believe in
TTITLE4=blood brothers
TTITLE5=someday soon
TTITLE6=when it comes to love
TTITLE7=something else to lose
TTITLE8=up to the highway
TTITLE9=the other side
TTITLE10=around here
EXTD=WWW.MattThackston.com\n\nProduced by Brian Kolb
EXTT0=
EXTT1=
EXTT2=
EXTT3=
EXTT4=
EXTT5=
EXTT6=
EXTT7=
EXTT8=
EXTT9=
EXTT10=
PLAYORDER=
